<svg style="position: absolute; width: 0; height: 0; overflow: hidden;"><symbol viewBox="0 0 44 44" id="icon-chevron"><path d="M32.5,24.62,35.12,22l-21-21L8.88,6.25,24.62,22,8.88,37.75,14.12,43Z"/></symbol><symbol viewBox="0 0 44 44" id="icon-close"><path d="M22,18.5,4.5,1,1,4.5,18.5,22,1,39.5,4.5,43,22,25.5,39.5,43,43,39.5,25.5,22,43,4.5,39.5,1Z"/></symbol><symbol viewBox="0 0 44 44" id="icon-hamburger"><path d="M4.2,20.25H39.79a2.17,2.17,0,0,0,1.6-.71,2.06,2.06,0,0,0,.49-1.68c-1.15-6.87-9.7-12-19.88-12S3.27,11,2.16,17.82a2.11,2.11,0,0,0,.49,1.68,1.87,1.87,0,0,0,1.55.75Zm-.31-2.12c1-6,8.77-10.55,18.11-10.55S39.12,12.1,40.1,18.12a.31.31,0,0,1-.31.36H4.2A.28.28,0,0,1,4,18.39a.38.38,0,0,1-.09-.27Zm36.3,12a2.57,2.57,0,0,0,.58-1.59v-1A2.6,2.6,0,0,0,38.15,25H5.76a2.59,2.59,0,0,0-2.62,2.61v1a2.51,2.51,0,0,0,.57,1.59,4.19,4.19,0,0,0-1.64,3.28v.71a4,4,0,0,0,3.91,4H37.92a4,4,0,0,0,3.92-4v-.71A4.17,4.17,0,0,0,40.19,30.17ZM5.76,29.42a.85.85,0,0,1-.84-.84h0v-1a.84.84,0,0,1,.84-.84H38.15a.84.84,0,0,1,.84.84v1a.84.84,0,0,1-.84.84H22.8a2.47,2.47,0,0,0-2.49,2.47h0v2a.39.39,0,0,1-.4.39h0a.39.39,0,0,1-.4-.39h0v-2A2.49,2.49,0,0,0,17,29.42h-.58a2.18,2.18,0,0,0-2.18,2.17v.49a1.25,1.25,0,0,1-2.49,0v-.49a2.18,2.18,0,0,0-2.18-2.17H5.76Zm34.3,4.74a2.22,2.22,0,0,1-2.14,2.26H6a2.19,2.19,0,0,1-2.13-2.26v-.71A2.19,2.19,0,0,1,6,31.19H9.54a.4.4,0,0,1,.4.4v.49a3,3,0,0,0,3,3,3,3,0,0,0,3-3v-.49a.4.4,0,0,1,.4-.4H17a.7.7,0,0,1,.71.71v2a2.18,2.18,0,0,0,4.36,0v-2a.7.7,0,0,1,.71-.71H37.92a2.22,2.22,0,0,1,2.14,2.26v.71Zm2.71-12.85a2.65,2.65,0,0,0-1.91-.79,2.59,2.59,0,0,0-1.91.79L37.66,22.6a1,1,0,0,1-1.34,0L35,21.27a2.69,2.69,0,0,0-1.92-.8,2.6,2.6,0,0,0-1.91.8l-1.24,1.24a1,1,0,0,1-1.34,0l-1.24-1.2a2.7,2.7,0,0,0-3.83,0L22.22,22.6a1,1,0,0,1-1.33,0L19.6,21.31a2.7,2.7,0,0,0-3.83,0l-1.16,1.16a1,1,0,0,1-1.33,0l-1-1a2.66,2.66,0,0,0-1.91-.8,2.6,2.6,0,0,0-1.92.8l-1,1a1,1,0,0,1-1.34,0l-1.07-1a2.69,2.69,0,0,0-3.82,0,.85.85,0,0,0,0,1.24.85.85,0,0,0,1.24,0,1,1,0,0,1,1.34,0l1,1a2.66,2.66,0,0,0,1.91.8,2.6,2.6,0,0,0,1.92-.8l1-1a1,1,0,0,1,1.34,0l1,1a2.66,2.66,0,0,0,1.91.8,2.6,2.6,0,0,0,1.91-.8L17,22.6a1,1,0,0,1,1.34,0l1.29,1.28a2.66,2.66,0,0,0,1.91.8,2.6,2.6,0,0,0,1.91-.8l1.29-1.28a1,1,0,0,1,1.34,0l1.24,1.24a2.66,2.66,0,0,0,1.91.8,2.6,2.6,0,0,0,1.92-.8l1.24-1.24a1,1,0,0,1,1.34,0L35,23.93a2.75,2.75,0,0,0,1.91.79,2.68,2.68,0,0,0,1.92-.79l1.29-1.29a1,1,0,0,1,1.33,0,.86.86,0,0,0,1.25,0A1,1,0,0,0,42.77,21.31Z"/><path d="M9.28,15.29A.85.85,0,0,0,9.94,15l.62-.75a.88.88,0,0,0-1.37-1.11l-.63.75a.86.86,0,0,0,.14,1.24.83.83,0,0,0,.57.18ZM14,16.62a.84.84,0,0,0,.66.31,1,1,0,0,0,.58-.22.89.89,0,0,0,.13-1.24l-.44-.53A.88.88,0,1,0,13.5,16Zm1-4.78a.94.94,0,0,0,.76.44,1,1,0,0,0,.45-.13.85.85,0,0,0,.31-1.2l-.45-.8a.88.88,0,1,0-1.51.89Zm5,3.8a.92.92,0,0,0,.71.36.9.9,0,0,0,.54-.18.86.86,0,0,0,.17-1.24l-.53-.71a.89.89,0,0,0-1.42,1.07l.53.71Zm.67-4.34a.67.67,0,0,0,.31,0,.92.92,0,0,0,.85-.58l.35-.88a.87.87,0,0,0-.53-1.15.89.89,0,0,0-1.16.53l-.36.88a.94.94,0,0,0,.54,1.15Zm5.07,6.12a1,1,0,0,0,.49-.14l.76-.48a.9.9,0,0,0-1-1.51l-.76.49A.91.91,0,0,0,24.93,17,1.08,1.08,0,0,0,25.69,17.42Zm.22-5.5a1,1,0,0,0,.36.09.81.81,0,0,0,.8-.53l.44-.93a.84.84,0,0,0-.44-1.15.85.85,0,0,0-1.16.44l-.44.93A.87.87,0,0,0,25.91,11.92Zm4.58,2.62a.94.94,0,0,0,.72.35.83.83,0,0,0,.53-.18.87.87,0,0,0,.18-1.24l-.54-.7A.89.89,0,0,0,30,13.83Zm4.94,2a.63.63,0,0,0,.27,0,.85.85,0,0,0,.84-.62l.36-1.19a.89.89,0,0,0-.62-1.11.9.9,0,0,0-1.12.62l-.35,1.2A.86.86,0,0,0,35.43,16.53Z"/></symbol><symbol viewBox="0 0 44 44" id="icon-menu"><rect x="1" y="7.3" width="42" height="4.2"/><rect x="1" y="19.9" width="42" height="4.2"/><rect x="1" y="32.5" width="42" height="4.2"/></symbol><symbol viewBox="0 0 44 44" id="icon-search"><path d="M28.56,31.59a17.09,17.09,0,1,1,6.61-13.5,17.15,17.15,0,0,1-3.62,10.53l0,0L43,40l-3,3L28.59,31.59ZM18.1,30.91A12.82,12.82,0,1,0,5.29,18.09,12.81,12.81,0,0,0,18.1,30.91Z"/></symbol></svg>